<svg width="66" height="66" viewBox="0 0 66 66" fill="none" xmlns="http://www.w3.org/2000/svg">
<circle cx="33" cy="33" r="33" fill="#6EEB83"/>
<path d="M33.048 45.32C31.832 45.32 30.7013 45.16 29.656 44.84C28.632 44.52 27.6933 44.04 26.84 43.4C26.008 42.7387 25.2613 41.928 24.6 40.968L26.968 38.248C28.0133 39.7413 29.016 40.776 29.976 41.352C30.936 41.928 32.0773 42.216 33.4 42.216C34.2107 42.216 34.9467 42.088 35.608 41.832C36.2693 41.576 36.792 41.224 37.176 40.776C37.56 40.328 37.752 39.816 37.752 39.24C37.752 38.856 37.688 38.4933 37.56 38.152C37.432 37.8107 37.2293 37.5013 36.952 37.224C36.696 36.9467 36.3547 36.6907 35.928 36.456C35.5227 36.2213 35.0427 36.0187 34.488 35.848C33.9333 35.656 33.2933 35.496 32.568 35.368C31.416 35.1333 30.4133 34.824 29.56 34.44C28.7067 34.056 27.992 33.576 27.416 33C26.84 32.424 26.4133 31.7733 26.136 31.048C25.8587 30.3013 25.72 29.4693 25.72 28.552C25.72 27.656 25.912 26.824 26.296 26.056C26.7013 25.288 27.2453 24.6267 27.928 24.072C28.632 23.496 29.4533 23.0587 30.392 22.76C31.3307 22.44 32.344 22.28 33.432 22.28C34.584 22.28 35.64 22.4293 36.6 22.728C37.56 23.0267 38.4133 23.4747 39.16 24.072C39.9067 24.648 40.5253 25.3627 41.016 26.216L38.584 28.616C38.1573 27.912 37.6773 27.3253 37.144 26.856C36.6107 26.3653 36.024 26.0027 35.384 25.768C34.744 25.512 34.0613 25.384 33.336 25.384C32.504 25.384 31.7787 25.512 31.16 25.768C30.5413 26.024 30.0507 26.3867 29.688 26.856C29.3467 27.304 29.176 27.8373 29.176 28.456C29.176 28.904 29.2613 29.32 29.432 29.704C29.6027 30.0667 29.8587 30.3973 30.2 30.696C30.5627 30.9733 31.0427 31.2293 31.64 31.464C32.2373 31.6773 32.952 31.8693 33.784 32.04C34.9573 32.296 36.0027 32.6267 36.92 33.032C37.8373 33.416 38.616 33.8747 39.256 34.408C39.896 34.9413 40.376 35.5387 40.696 36.2C41.0373 36.8613 41.208 37.576 41.208 38.344C41.208 39.7733 40.8773 41.0107 40.216 42.056C39.5547 43.1013 38.616 43.912 37.4 44.488C36.184 45.0427 34.7333 45.32 33.048 45.32Z" fill="black"/>
</svg>
