<svg width="34" height="34" viewBox="0 0 34 34" fill="none" xmlns="http://www.w3.org/2000/svg">
<path d="M2 13.6666C1.52778 13.6666 1.13223 13.4999 0.813337 13.1666C0.493337 12.8333 0.361114 12.4444 0.41667 11.9999C0.611115 10.1666 1.09056 8.40936 1.855 6.72825C2.61834 5.04825 3.625 3.54159 4.875 2.20825C5.18056 1.9027 5.56945 1.74992 6.04167 1.74992C6.51389 1.74992 6.91667 1.91659 7.25 2.24992C7.55556 2.55547 7.70834 2.93047 7.70834 3.37492C7.70834 3.81936 7.55556 4.22214 7.25 4.58325C6.27778 5.63881 5.49334 6.78436 4.89667 8.01992C4.29889 9.25659 3.91667 10.5833 3.75 11.9999C3.69445 12.4721 3.50723 12.8677 3.18834 13.1866C2.86834 13.5066 2.47223 13.6666 2 13.6666ZM32 13.6666C31.5556 13.6666 31.1667 13.5066 30.8333 13.1866C30.5 12.8677 30.3056 12.4721 30.25 11.9999C30.0833 10.5833 29.7017 9.25659 29.105 8.01992C28.5072 6.78436 27.7222 5.63881 26.75 4.58325C26.4445 4.22214 26.2917 3.81936 26.2917 3.37492C26.2917 2.93047 26.4583 2.55547 26.7917 2.24992C27.125 1.91659 27.5206 1.74992 27.9783 1.74992C28.4372 1.74992 28.8194 1.9027 29.125 2.20825C30.375 3.54159 31.3822 5.04825 32.1467 6.72825C32.91 8.40936 33.3889 10.1666 33.5833 11.9999C33.6389 12.4444 33.5067 12.8333 33.1867 13.1666C32.8678 13.4999 32.4722 13.6666 32 13.6666ZM5.33334 28.6666C4.86111 28.6666 4.465 28.5066 4.145 28.1866C3.82612 27.8677 3.66667 27.4721 3.66667 26.9999C3.66667 26.5277 3.82612 26.1321 4.145 25.8133C4.465 25.4933 4.86111 25.3333 5.33334 25.3333H7V13.6666C7 11.361 7.69445 9.31214 9.08334 7.51992C10.4722 5.72881 12.2778 4.55547 14.5 3.99992V2.83325C14.5 2.13881 14.7433 1.54881 15.23 1.06325C15.7156 0.576585 16.3056 0.333252 17 0.333252C17.6944 0.333252 18.2844 0.576585 18.77 1.06325C19.2567 1.54881 19.5 2.13881 19.5 2.83325V3.99992C21.7222 4.55547 23.5278 5.72881 24.9167 7.51992C26.3056 9.31214 27 11.361 27 13.6666V25.3333H28.6667C29.1389 25.3333 29.5344 25.4933 29.8533 25.8133C30.1733 26.1321 30.3333 26.5277 30.3333 26.9999C30.3333 27.4721 30.1733 27.8677 29.8533 28.1866C29.5344 28.5066 29.1389 28.6666 28.6667 28.6666H5.33334ZM17 33.6666C16.0833 33.6666 15.2989 33.3405 14.6467 32.6883C13.9933 32.0349 13.6667 31.2499 13.6667 30.3333H20.3333C20.3333 31.2499 20.0072 32.0349 19.355 32.6883C18.7017 33.3405 17.9167 33.6666 17 33.6666ZM10.3333 25.3333H23.6667V13.6666C23.6667 11.8333 23.0139 10.2638 21.7083 8.95825C20.4028 7.6527 18.8333 6.99992 17 6.99992C15.1667 6.99992 13.5972 7.6527 12.2917 8.95825C10.9861 10.2638 10.3333 11.8333 10.3333 13.6666V25.3333Z" fill="#1C1B1F"/>
</svg>
