<svg width="33" height="20" viewBox="0 0 33 20" fill="none" xmlns="http://www.w3.org/2000/svg">
<path d="M0.541996 18.875C0.263996 18.625 0.131996 18.3193 0.145996 17.958C0.159996 17.5973 0.291996 17.292 0.541996 17.042L10.667 6.875C10.8057 6.73633 10.9513 6.632 11.104 6.562C11.2567 6.49267 11.4163 6.458 11.583 6.458C11.7777 6.458 11.9443 6.49267 12.083 6.562C12.2223 6.632 12.3753 6.73633 12.542 6.875L18.375 12.708L28.042 3.125H24.333C23.9723 3.125 23.667 3 23.417 2.75C23.167 2.5 23.042 2.19433 23.042 1.833C23.042 1.44433 23.167 1.125 23.417 0.875C23.667 0.625 23.9723 0.5 24.333 0.5H31.125C31.4863 0.5 31.7987 0.625 32.062 0.875C32.326 1.125 32.458 1.43067 32.458 1.792V8.583C32.458 8.94433 32.326 9.257 32.062 9.521C31.7987 9.785 31.4863 9.917 31.125 9.917C30.7917 9.917 30.493 9.785 30.229 9.521C29.965 9.257 29.833 8.94433 29.833 8.583V5.042L19.292 15.583C19.1527 15.7223 19.0067 15.8197 18.854 15.875C18.7013 15.9303 18.5417 15.958 18.375 15.958C18.1803 15.958 18.0137 15.9303 17.875 15.875C17.7363 15.8197 17.5973 15.7223 17.458 15.583L11.583 9.708L2.375 18.917C2.125 19.167 1.81933 19.292 1.458 19.292C1.09733 19.292 0.791996 19.153 0.541996 18.875Z" fill="#6EEB83"/>
</svg>
